<?xml version="1.0" encoding="UTF-8"?>
<svg version="1.1" xmlns="http://www.w3.org/2000/svg" width="100" height="100">
<path d="M0 0 C3.48586668 1.47927676 6.42387336 3.19897341 9 6 C9 6.99 9 7.98 9 9 C9.99 9.495 9.99 9.495 11 10 C13.79790518 13.76641082 14.32469403 16.34605219 14 21 C14.7425 21.226875 15.485 21.45375 16.25 21.6875 C19.74401107 23.35509619 20.98941051 24.67212773 23 28 C23.68377115 30.62112273 24.18204085 33.2155104 24.60546875 35.890625 C24.79043052 37.97878152 24.79043052 37.97878152 26 39 C26.15420847 41.59781969 26.23169544 44.15075286 26.25 46.75 C26.270625 47.46671875 26.29125 48.1834375 26.3125 48.921875 C26.34609189 53.49037187 25.85590336 56.39675745 23 60 C20 62 20 62 16.1875 62.3125 C12.56899312 62.65399248 12.04461547 62.96023403 9.125 65.5625 C5.26400909 68.57407291 3.10839962 68.49663987 -1.6328125 68.37109375 C-4.10695402 67.98323328 -5.83879445 67.23995434 -8 66 C-8.7425 66.61875 -9.485 67.2375 -10.25 67.875 C-16.58306148 72.76872933 -22.14314609 72.6179548 -30 72 C-35.24980515 70.28188195 -38.38082458 67.05002964 -42 63 C-42 62.34 -42 61.68 -42 61 C-43.15628906 61.03480469 -43.15628906 61.03480469 -44.3359375 61.0703125 C-45.33882812 61.08835938 -46.34171875 61.10640625 -47.375 61.125 C-48.37273438 61.14820313 -49.37046875 61.17140625 -50.3984375 61.1953125 C-53 61 -53 61 -55 59 C-55.375 56.0625 -55.375 56.0625 -55 53 C-53 51.125 -53 51.125 -51 50 C-51.825 49.38125 -52.65 48.7625 -53.5 48.125 C-56.0307141 45.58705529 -56.46427193 43.6145904 -56.625 40.0625 C-56.44518553 36.51909729 -55.93842307 34.2511868 -53.75 31.4375 C-50.13367876 28.23212435 -50.13367876 28.23212435 -47 28 C-46.9071875 26.6696875 -46.9071875 26.6696875 -46.8125 25.3125 C-45.80006722 21.18488945 -44.22519358 19.70016207 -41 17 C-38.03043153 15.22071311 -35.99264183 14.86311043 -32.5625 14.875 C-29.65902534 14.62314377 -28.44818804 14.50118714 -26.48046875 12.30078125 C-25.65764519 10.88761444 -24.86836698 9.4543974 -24.11328125 8.00390625 C-19.14691163 -0.93555906 -8.99641025 -1.15036066 0 0 Z " fill="#CBEBE5" transform="translate(65,14)"/>
<path d="M0 0 C2.66066496 1.21653083 5.03438019 2.48136541 7.46875 4.09667969 C8.26152344 4.62261719 9.05429687 5.14855469 9.87109375 5.69042969 C11.08345703 6.51027344 11.08345703 6.51027344 12.3203125 7.34667969 C13.15175781 7.89324219 13.98320313 8.43980469 14.83984375 9.00292969 C15.62488281 9.52886719 16.40992188 10.05480469 17.21875 10.59667969 C18.29261963 11.31597656 18.29261963 11.31597656 19.38818359 12.04980469 C19.90203613 12.47777344 20.41588867 12.90574219 20.9453125 13.34667969 C20.9453125 14.00667969 20.9453125 14.66667969 20.9453125 15.34667969 C20.2853125 15.34667969 19.6253125 15.34667969 18.9453125 15.34667969 C18.9453125 16.33667969 18.9453125 17.32667969 18.9453125 18.34667969 C17.9553125 18.34667969 16.9653125 18.34667969 15.9453125 18.34667969 C16.4403125 21.81167969 16.4403125 21.81167969 16.9453125 25.34667969 C18.89530379 25.15196858 18.89530379 25.15196858 20.9453125 24.34667969 C22.22967984 22.36290299 22.22967984 22.36290299 22.9453125 20.34667969 C27.58507075 19.92488348 30.87254902 21.1536532 34.9453125 23.34667969 C35.8828125 25.53417969 35.8828125 25.53417969 35.9453125 27.34667969 C35.5534375 26.87230469 35.1615625 26.39792969 34.7578125 25.90917969 C32.49994575 23.96274283 30.86662938 23.77418948 27.9453125 23.34667969 C26.60988311 23.02184551 25.27569699 22.69159418 23.9453125 22.34667969 C23.2853125 23.33667969 22.6253125 24.32667969 21.9453125 25.34667969 C18.8203125 26.53417969 18.8203125 26.53417969 15.9453125 27.34667969 C15.9453125 29.32667969 15.9453125 31.30667969 15.9453125 33.34667969 C18.9153125 33.34667969 21.8853125 33.34667969 24.9453125 33.34667969 C24.9453125 33.67667969 24.9453125 34.00667969 24.9453125 34.34667969 C21.9753125 34.34667969 19.0053125 34.34667969 15.9453125 34.34667969 C16.4403125 36.82167969 16.4403125 36.82167969 16.9453125 39.34667969 C17.9353125 39.34667969 18.9253125 39.34667969 19.9453125 39.34667969 C21.44352309 42.71765352 21.9453125 44.55110088 21.9453125 48.34667969 C11.0553125 48.34667969 0.1653125 48.34667969 -11.0546875 48.34667969 C-10.5596875 45.37667969 -10.5596875 45.37667969 -10.0546875 42.34667969 C-11.0446875 41.68667969 -12.0346875 41.02667969 -13.0546875 40.34667969 C-14.2421875 38.22167969 -14.2421875 38.22167969 -15.0546875 36.34667969 C-18.0246875 36.84167969 -18.0246875 36.84167969 -21.0546875 37.34667969 C-21.3846875 36.02667969 -21.7146875 34.70667969 -22.0546875 33.34667969 C-21.7246875 33.34667969 -21.3946875 33.34667969 -21.0546875 33.34667969 C-20.7246875 28.39667969 -20.3946875 23.44667969 -20.0546875 18.34667969 C-21.0446875 18.34667969 -22.0346875 18.34667969 -23.0546875 18.34667969 C-23.0546875 17.35667969 -23.0546875 16.36667969 -23.0546875 15.34667969 C-23.7146875 15.34667969 -24.3746875 15.34667969 -25.0546875 15.34667969 C-25.0546875 14.68667969 -25.0546875 14.02667969 -25.0546875 13.34667969 C-21.70665778 10.66044016 -18.03336176 8.42338993 -14.4296875 6.09667969 C-13.43066406 5.42121094 -12.43164062 4.74574219 -11.40234375 4.04980469 C-10.42910156 3.42074219 -9.45585938 2.79167969 -8.453125 2.14355469 C-7.11773682 1.26715332 -7.11773682 1.26715332 -5.75537109 0.37304688 C-3.0546875 -0.65332031 -3.0546875 -0.65332031 0 0 Z " fill="#68615B" transform="translate(52.0546875,25.6533203125)"/>
<path d="M0 0 C0.99 0.33 1.98 0.66 3 1 C3.495 2.485 3.495 2.485 4 4 C1.04666001 6.00745255 -1.91346032 8.00466826 -4.875 10 C-5.71675781 10.57234375 -6.55851562 11.1446875 -7.42578125 11.734375 C-8.23144531 12.27578125 -9.03710938 12.8171875 -9.8671875 13.375 C-10.61081543 13.87773438 -11.35444336 14.38046875 -12.12060547 14.8984375 C-14 16 -14 16 -16 16 C-16 16.66 -16 17.32 -16 18 C-15.34 18 -14.68 18 -14 18 C-14 18.99 -14 19.98 -14 21 C-13.01 21 -12.02 21 -11 21 C-11 26.28 -11 31.56 -11 37 C-13.97 36.67 -16.94 36.34 -20 36 C-20.495 38.475 -20.495 38.475 -21 41 C-21.721875 41.12375 -22.44375 41.2475 -23.1875 41.375 C-25.95721894 41.9904931 -28.3970354 42.88444374 -31 44 C-31.042721 45.66611905 -31.04063832 47.33382885 -31 49 C-28.88074396 51.11925604 -24.3803907 50.41831017 -21.4375 50.5625 C-20.22803711 50.62727539 -20.22803711 50.62727539 -18.99414062 50.69335938 C-16.99631195 50.79975262 -14.9981793 50.90040888 -13 51 C-13 51.33 -13 51.66 -13 52 C-15.95857409 52.05379226 -18.91617721 52.09357093 -21.875 52.125 C-23.13763672 52.15013672 -23.13763672 52.15013672 -24.42578125 52.17578125 C-25.23144531 52.18222656 -26.03710938 52.18867187 -26.8671875 52.1953125 C-27.61081543 52.20578613 -28.35444336 52.21625977 -29.12060547 52.22705078 C-31 52 -31 52 -33 50 C-33.375 47.0625 -33.375 47.0625 -33 44 C-31 42.125 -31 42.125 -29 41 C-29.825 40.38125 -30.65 39.7625 -31.5 39.125 C-34.0307141 36.58705529 -34.46427193 34.6145904 -34.625 31.0625 C-34.44518553 27.51909729 -33.93842307 25.2511868 -31.75 22.4375 C-28.13367876 19.23212435 -28.13367876 19.23212435 -25 19 C-24.9071875 17.6696875 -24.9071875 17.6696875 -24.8125 16.3125 C-23.80006722 12.18488945 -22.22519358 10.70016207 -19 8 C-15.327362 5.82702252 -12.11134428 5.61776395 -7.92578125 5.34375 C-7.29027344 5.2303125 -6.65476562 5.116875 -6 5 C-5.67 4.34 -5.34 3.68 -5 3 C-2.625 1.3125 -2.625 1.3125 0 0 Z " fill="#BCD8D2" transform="translate(43,23)"/>
<path d="M0 0 C2.97 0 5.94 0 9 0 C9.33 6.93 9.66 13.86 10 21 C14.62 21 19.24 21 24 21 C24.92188461 18.23434618 25.11785222 16.61716298 25.09765625 13.76953125 C25.09282227 12.56586914 25.09282227 12.56586914 25.08789062 11.33789062 C25.07951172 10.50451172 25.07113281 9.67113281 25.0625 8.8125 C25.05798828 7.96751953 25.05347656 7.12253906 25.04882812 6.25195312 C25.03705403 4.16793845 25.0191189 2.08396023 25 0 C26.32 0 27.64 0 29 0 C29.06058594 1.09699219 29.12117188 2.19398437 29.18359375 3.32421875 C29.26804498 4.77865654 29.35269066 6.23308305 29.4375 7.6875 C29.47681641 8.40873047 29.51613281 9.12996094 29.55664062 9.87304688 C29.78185678 13.66707282 30.12839305 17.28651492 31 21 C31.99 21 32.98 21 34 21 C35.49821059 24.37097383 36 26.20442119 36 30 C25.11 30 14.22 30 3 30 C3.33 28.02 3.66 26.04 4 24 C3.01 23.34 2.02 22.68 1 22 C-0.46197773 17.56394185 -0.11286017 12.80901378 -0.0625 8.1875 C-0.05573242 7.00510742 -0.05573242 7.00510742 -0.04882812 5.79882812 C-0.03711312 3.86585239 -0.01917998 1.93291607 0 0 Z " fill="#958B81" transform="translate(38,44)"/>
<path d="M0 0 C0.66 0.99 1.32 1.98 2 3 C3.175625 2.690625 3.175625 2.690625 4.375 2.375 C5.674375 2.189375 5.674375 2.189375 7 2 C9 4 9 4 9 7 C10.32 7.66 11.64 8.32 13 9 C12.125 13.875 12.125 13.875 11 15 C4.35525237 16.22546575 -2.34963083 16.03819346 -9.0625 15.6875 C-9.81273437 15.65285645 -10.56296875 15.61821289 -11.3359375 15.58251953 C-16.75558947 15.24441053 -16.75558947 15.24441053 -19 13 C-19 10.625 -19 10.625 -18 8 C-15.1875 5.625 -15.1875 5.625 -12 4 C-9.625 4.25 -9.625 4.25 -8 5 C-7.87625 4.195625 -7.7525 3.39125 -7.625 2.5625 C-7.41875 1.716875 -7.2125 0.87125 -7 0 C-4.27584084 -1.36207958 -2.87220643 -0.86166193 0 0 Z " fill="#F8F5E9" transform="translate(30,59)"/>
<path d="M0 0 C2.12817383 1.10742188 2.12817383 1.10742188 4.20703125 2.46875 C4.95791016 2.95730469 5.70878906 3.44585938 6.48242188 3.94921875 C7.25134766 4.46097656 8.02027344 4.97273438 8.8125 5.5 C9.60076172 6.01175781 10.38902344 6.52351563 11.20117188 7.05078125 C15.42864898 9.82517748 15.42864898 9.82517748 17 11 C17 11.33 17 11.66 17 12 C3.8 12 -9.4 12 -23 12 C-19.44744351 8.44744351 -16.20538793 5.8984941 -12.0625 3.1875 C-11.45470703 2.76791016 -10.84691406 2.34832031 -10.22070312 1.91601562 C-6.303137 -0.64920836 -4.45219715 -1.33131096 0 0 Z " fill="#AEA59B" transform="translate(53,28)"/>
<path d="M0 0 C0.33 0.66 0.66 1.32 1 2 C0.01 2 -0.98 2 -2 2 C-1.67 4.31 -1.34 6.62 -1 9 C0.94999129 8.80528889 0.94999129 8.80528889 3 8 C4.28436734 6.0162233 4.28436734 6.0162233 5 4 C9.63975825 3.5782038 12.92723652 4.80697351 17 7 C17.9375 9.1875 17.9375 9.1875 18 11 C17.4121875 10.2884375 17.4121875 10.2884375 16.8125 9.5625 C14.55463325 7.61606315 12.92131688 7.42750979 10 7 C8.66457061 6.67516582 7.33038449 6.3449145 6 6 C5.34 6.99 4.68 7.98 4 9 C0.875 10.1875 0.875 10.1875 -2 11 C-2 12.98 -2 14.96 -2 17 C0.97 17 3.94 17 7 17 C7 17.33 7 17.66 7 18 C3.7 18 0.4 18 -3 18 C-3 12.72 -3 7.44 -3 2 C-4.32 2 -5.64 2 -7 2 C-7 7.94 -7 13.88 -7 20 C-6.34 20.33 -5.68 20.66 -5 21 C-5.99 21 -6.98 21 -8 21 C-8 21.66 -8 22.32 -8 23 C-7.34 23.33 -6.68 23.66 -6 24 C-12.93 24 -19.86 24 -27 24 C-27 23.67 -27 23.34 -27 23 C-21.25 21.875 -21.25 21.875 -19 23 C-19 22.01 -19 21.02 -19 20 C-17.02 20 -15.04 20 -13 20 C-13 13.73 -13 7.46 -13 1 C-6.565 0.505 -6.565 0.505 0 0 Z " fill="#423F38" transform="translate(70,42)"/>
<path d="M0 0 C3.41021743 0.78697325 6.68885166 1.87119943 10 3 C10 3.99 10 4.98 10 6 C11.32 6.66 12.64 7.32 14 8 C13.31640625 9.94921875 13.31640625 9.94921875 12 12 C5.54851529 13.81964953 -1.46510722 12.96416451 -8 12 C-8.1875 9.125 -8.1875 9.125 -8 6 C-5 4 -5 4 -2 4 C-1.34 2.68 -0.68 1.36 0 0 Z " fill="#FAF8EC" transform="translate(76,47)"/>
<path d="M0 0 C1.32 0 2.64 0 4 0 C4.06058594 1.09699219 4.12117188 2.19398437 4.18359375 3.32421875 C4.26804498 4.77865654 4.35269066 6.23308305 4.4375 7.6875 C4.47681641 8.40873047 4.51613281 9.12996094 4.55664062 9.87304688 C4.78185678 13.66707282 5.12839305 17.28651492 6 21 C6.99 21 7.98 21 9 21 C10.49821059 24.37097383 11 26.20442119 11 30 C0.11 30 -10.78 30 -22 30 C-21.34 28.02 -20.68 26.04 -20 24 C-19.67 25.32 -19.34 26.64 -19 28 C-17.68 28 -16.36 28 -15 28 C-15 27.01 -15 26.02 -15 25 C-14.34 25 -13.68 25 -13 25 C-13 25.99 -13 26.98 -13 28 C-5.74 28 1.52 28 9 28 C8.67 26.02 8.34 24.04 8 22 C6.88625 22.020625 5.7725 22.04125 4.625 22.0625 C1 22 1 22 -1 21 C-0.67 20.01 -0.34 19.02 0 18 C0.08021999 16.59175107 0.10765977 15.18002769 0.09765625 13.76953125 C0.09282227 12.56586914 0.09282227 12.56586914 0.08789062 11.33789062 C0.07951172 10.50451172 0.07113281 9.67113281 0.0625 8.8125 C0.05798828 7.96751953 0.05347656 7.12253906 0.04882812 6.25195312 C0.03705403 4.16793845 0.0191189 2.08396023 0 0 Z " fill="#706762" transform="translate(63,44)"/>
<path d="M0 0 C1.875 0.3125 1.875 0.3125 4 1 C4.66 1.99 5.32 2.98 6 4 C7.093125 3.773125 8.18625 3.54625 9.3125 3.3125 C13 3 13 3 14.875 3.9375 C16.63052689 7.15596597 16.64810276 10.36372849 17 14 C17.33 14.33 17.66 14.66 18 15 C18.04080783 16.99958364 18.04254356 19.00045254 18 21 C15.29120665 22.35439668 12.99066732 22.06501451 10 22 C10 21.67 10 21.34 10 21 C11.98 20.34 13.96 19.68 16 19 C16 18.34 16 17.68 16 17 C14.68 17 13.36 17 12 17 C12.33 16.01 12.66 15.02 13 14 C13 13.01 13 12.02 13 11 C9.24455129 9.60262373 6.02603178 8.44082892 2 9 C1.01 10.485 1.01 10.485 0 12 C-2.625 13.1875 -2.625 13.1875 -5 14 C-5 11.36 -5 8.72 -5 6 C-4.01 6 -3.02 6 -2 6 C-2 5.01 -2 4.02 -2 3 C-1.34 3 -0.68 3 0 3 C0 2.01 0 1.02 0 0 Z " fill="#CBEAE3" transform="translate(73,38)"/>
<path d="M0 0 C0.66 0.33 1.32 0.66 2 1 C1.505 1.5775 1.01 2.155 0.5 2.75 C-1.36980013 5.10400629 -1.36980013 5.10400629 -1 9 C0.98 8.34 2.96 7.68 5 7 C5.99 8.485 5.99 8.485 7 10 C7.99 10.33 8.98 10.66 10 11 C10 11.99 10 12.98 10 14 C8.865625 14.12375 7.73125 14.2475 6.5625 14.375 C4.7990625 14.684375 4.7990625 14.684375 3 15 C2.67 15.66 2.34 16.32 2 17 C3.65 17.33 5.3 17.66 7 18 C4.66785852 19.20628008 2.50357861 20.1654738 0 21 C-3.00256943 18.74807293 -4.70111828 17.3817532 -5.5078125 13.65234375 C-5.71415554 9.09216265 -5.47792474 5.95701804 -2.5 2.375 C-1.675 1.59125 -0.85 0.8075 0 0 Z " fill="#D8EFEB" transform="translate(14,43)"/>
<path d="M0 0 C13.86 0 27.72 0 42 0 C41.67 2.31 41.34 4.62 41 7 C38.47524538 8.26237731 36.68799534 8.09856404 33.875 8.0625 C32.96492188 8.05347656 32.05484375 8.04445313 31.1171875 8.03515625 C30.41851562 8.02355469 29.71984375 8.01195313 29 8 C29 7.34 29 6.68 29 6 C27.68 5.34 26.36 4.68 25 4 C25 3.34 25 2.68 25 2 C16.75 1.67 8.5 1.34 0 1 C0 0.67 0 0.34 0 0 Z " fill="#C4DFD8" transform="translate(32,74)"/>
<path d="M0 0 C0.5775 0.165 1.155 0.33 1.75 0.5 C4.26664369 1.14462031 4.26664369 1.14462031 8 1 C10.359375 2.2421875 10.359375 2.2421875 12.75 3.875 C13.54921875 4.40867187 14.3484375 4.94234375 15.171875 5.4921875 C15.77515625 5.98976563 16.3784375 6.48734375 17 7 C17 7.66 17 8.32 17 9 C8.75 9 0.5 9 -8 9 C-5.03490401 6.77617801 -2.18401617 4.85734277 1 3 C0.67 2.01 0.34 1.02 0 0 Z " fill="#FBF9ED" transform="translate(44,30)"/>
<path d="M0 0 C3 1 3 1 4 3 C4.039992 4.99960012 4.04346799 7.00047242 4 9 C4.763125 9.268125 5.52625 9.53625 6.3125 9.8125 C8.87380884 10.94424112 10.19692938 11.91223401 12 14 C11.67 14.66 11.34 15.32 11 16 C8.35139573 16.59355614 5.70802678 16.74209269 3 17 C2.566875 16.0409375 2.566875 16.0409375 2.125 15.0625 C1.17176549 12.84793921 1.17176549 12.84793921 -1 12 C-1 11.34 -1 10.68 -1 10 C-1.66 9.67 -2.32 9.34 -3 9 C-2.505 8.62875 -2.01 8.2575 -1.5 7.875 C0.59755514 5.25305607 0.21743835 3.26157528 0 0 Z " fill="#CDEEE8" transform="translate(75,26)"/>
<path d="M0 0 C2.97 0.495 2.97 0.495 6 1 C6.13277344 1.71027344 6.26554687 2.42054687 6.40234375 3.15234375 C6.57894531 4.07144531 6.75554687 4.99054687 6.9375 5.9375 C7.11152344 6.85402344 7.28554687 7.77054688 7.46484375 8.71484375 C7.77714988 10.95289844 7.77714988 10.95289844 9 12 C9.04080783 13.99958364 9.04254356 16.00045254 9 18 C6.29120665 19.35439668 3.99066732 19.06501451 1 19 C1 18.67 1 18.34 1 18 C2.98 17.34 4.96 16.68 7 16 C7 15.34 7 14.68 7 14 C5.68 14 4.36 14 3 14 C3.33 13.01 3.66 12.02 4 11 C4 10.01 4 9.02 4 8 C3.030625 7.71125 2.06125 7.4225 1.0625 7.125 C-2 6 -2 6 -3 4 C-2.67 3.34 -2.34 2.68 -2 2 C-1.34 2 -0.68 2 0 2 C0 1.34 0 0.68 0 0 Z " fill="#B8CBC5" transform="translate(82,41)"/>
<path d="M0 0 C1.32 0 2.64 0 4 0 C4.0269501 2.93756119 4.04681474 5.87487555 4.0625 8.8125 C4.07087891 9.64587891 4.07925781 10.47925781 4.08789062 11.33789062 C4.09111328 12.14033203 4.09433594 12.94277344 4.09765625 13.76953125 C4.10289307 14.50792236 4.10812988 15.24631348 4.11352539 16.00708008 C4 18 4 18 3 21 C2.34 21 1.68 21 1 21 C0.07811539 18.23434618 -0.11785222 16.61716298 -0.09765625 13.76953125 C-0.09282227 12.56586914 -0.09282227 12.56586914 -0.08789062 11.33789062 C-0.07951172 10.50451172 -0.07113281 9.67113281 -0.0625 8.8125 C-0.05798828 7.96751953 -0.05347656 7.12253906 -0.04882812 6.25195312 C-0.03705403 4.16793845 -0.0191189 2.08396023 0 0 Z " fill="#CFE9E2" transform="translate(58,44)"/>
<path d="M0 0 C1.32 0 2.64 0 4 0 C4.0269501 2.93756119 4.04681474 5.87487555 4.0625 8.8125 C4.07087891 9.64587891 4.07925781 10.47925781 4.08789062 11.33789062 C4.09111328 12.14033203 4.09433594 12.94277344 4.09765625 13.76953125 C4.10289307 14.50792236 4.10812988 15.24631348 4.11352539 16.00708008 C4 18 4 18 3 21 C2.34 21 1.68 21 1 21 C0.07811539 18.23434618 -0.11785222 16.61716298 -0.09765625 13.76953125 C-0.09282227 12.56586914 -0.09282227 12.56586914 -0.08789062 11.33789062 C-0.07951172 10.50451172 -0.07113281 9.67113281 -0.0625 8.8125 C-0.05798828 7.96751953 -0.05347656 7.12253906 -0.04882812 6.25195312 C-0.03705403 4.16793845 -0.0191189 2.08396023 0 0 Z " fill="#CFE9E2" transform="translate(48,44)"/>
<path d="M0 0 C1.32 0 2.64 0 4 0 C4.05390357 2.93774463 4.0936255 5.87450232 4.125 8.8125 C4.14175781 9.64587891 4.15851562 10.47925781 4.17578125 11.33789062 C4.18222656 12.14033203 4.18867187 12.94277344 4.1953125 13.76953125 C4.20578613 14.50792236 4.21625977 15.24631348 4.22705078 16.00708008 C4 18 4 18 2 21 C-0.71486934 17.02389214 -0.22440753 12.86098023 -0.125 8.25 C-0.11597656 7.45722656 -0.10695312 6.66445313 -0.09765625 5.84765625 C-0.07417012 3.89830719 -0.03830137 1.94911425 0 0 Z " fill="#CDE9E1" transform="translate(38,44)"/>
<path d="M0 0 C3.74576614 1.22213556 6.74633115 3.17274959 10.015625 5.33984375 C10.65242188 5.74783203 11.28921875 6.15582031 11.9453125 6.57617188 C16.63006857 9.63123088 16.63006857 9.63123088 17.765625 11.90234375 C11.34748898 12.39604652 11.34748898 12.39604652 8.703125 10.15234375 C7.7440625 9.03859375 7.7440625 9.03859375 6.765625 7.90234375 C2.99809016 4.7191697 2.99809016 4.7191697 -1.609375 4.15234375 C-2.145625 4.39984375 -2.681875 4.64734375 -3.234375 4.90234375 C-3.234375 4.24234375 -3.234375 3.58234375 -3.234375 2.90234375 C-3.894375 2.57234375 -4.554375 2.24234375 -5.234375 1.90234375 C-2.234375 -0.09765625 -2.234375 -0.09765625 0 0 Z " fill="#C2BAB3" transform="translate(50.234375,27.09765625)"/>
<path d="M0 0 C1.32 0 2.64 0 4 0 C4 5.94 4 11.88 4 18 C2.68 18 1.36 18 0 18 C0 12.06 0 6.12 0 0 Z " fill="#FEF9ED" transform="translate(53,44)"/>
<path d="M0 0 C1.32 0 2.64 0 4 0 C4 5.94 4 11.88 4 18 C2.68 18 1.36 18 0 18 C0 12.06 0 6.12 0 0 Z " fill="#FDF9EE" transform="translate(63,44)"/>
<path d="M0 0 C1.32 0 2.64 0 4 0 C4 5.94 4 11.88 4 18 C2.68 18 1.36 18 0 18 C0 12.06 0 6.12 0 0 Z " fill="#FEF9EF" transform="translate(43,44)"/>
<path d="M0 0 C1.41750563 0.11509661 2.83401169 0.24253658 4.25 0.375 C5.03890625 0.44460937 5.8278125 0.51421875 6.640625 0.5859375 C9 1 9 1 10.8515625 2.0390625 C13.97814789 3.43749888 16.7263424 3.1135251 20.125 3 C23.8828125 2.875 23.8828125 2.875 27 3 C27.66 3.66 28.32 4.32 29 5 C21.74 5 14.48 5 7 5 C7 4.01 7 3.02 7 2 C6.34 2 5.68 2 5 2 C5 2.99 5 3.98 5 5 C3.68 5 2.36 5 1 5 C0.67 3.35 0.34 1.7 0 0 Z " fill="#CFC9BD" transform="translate(43,67)"/>
<path d="M0 0 C1.32 0 2.64 0 4 0 C4 5.28 4 10.56 4 16 C2.68 16 1.36 16 0 16 C0 10.72 0 5.44 0 0 Z " fill="#FEF9EF" transform="translate(33,44)"/>
<path d="M0 0 C0.33 0.99 0.66 1.98 1 3 C1.66 3.33 2.32 3.66 3 4 C2.01 5.485 2.01 5.485 1 7 C-2.0390625 7.29296875 -2.0390625 7.29296875 -5.625 7.1875 C-6.81351562 7.16042969 -8.00203125 7.13335938 -9.2265625 7.10546875 C-10.59941406 7.05326172 -10.59941406 7.05326172 -12 7 C-11.34 5.68 -10.68 4.36 -10 3 C-10.99 2.67 -11.98 2.34 -13 2 C-8.71 2 -4.42 2 0 2 C0 1.34 0 0.68 0 0 Z " fill="#DEF5F3" transform="translate(73,20)"/>
<path d="M0 0 C0.75410156 0.00451172 1.50820312 0.00902344 2.28515625 0.01367188 C4.14847127 0.02546501 6.01174555 0.04340058 7.875 0.0625 C8.205 1.3825 8.535 2.7025 8.875 4.0625 C3.265 4.0625 -2.345 4.0625 -8.125 4.0625 C-8.125 3.4025 -8.125 2.7425 -8.125 2.0625 C-8.785 1.7325 -9.445 1.4025 -10.125 1.0625 C-6.93675432 -0.53162284 -3.49603338 -0.03924735 0 0 Z " fill="#ADA296" transform="translate(63.125,66.9375)"/>
<path d="M0 0 C1.32 0.66 2.64 1.32 4 2 C-0.82624485 5.84129692 -3.83543524 7.62257767 -10 8 C-6.97727468 4.74475735 -3.74281699 2.38179263 0 0 Z " fill="#C6BEB7" transform="translate(42,31)"/>
<path d="M0 0 C3.34147603 1.08792243 5.84911441 2.82872202 8.6875 4.875 C4.75161188 6.18696271 2.59995633 5.01316911 -1.3125 3.875 C-2.3025 4.37 -2.3025 4.37 -3.3125 4.875 C-3.3125 4.215 -3.3125 3.555 -3.3125 2.875 C-3.9725 2.545 -4.6325 2.215 -5.3125 1.875 C-2.3125 -0.125 -2.3125 -0.125 0 0 Z " fill="#DDD3CF" transform="translate(50.3125,27.125)"/>
<path d="M0 0 C0.99 0.33 1.98 0.66 3 1 C3.6875 3.0625 3.6875 3.0625 4 5 C6.31 5 8.62 5 11 5 C11 5.33 11 5.66 11 6 C9.14375 6.1546875 9.14375 6.1546875 7.25 6.3125 C3.21776358 6.6485197 2.60764282 7.29426789 -1 10 C-0.67 6.7 -0.34 3.4 0 0 Z " fill="#D5EEEB" transform="translate(74,70)"/>
<path d="M0 0 C2.8203125 -0.29296875 2.8203125 -0.29296875 6.125 -0.1875 C7.76855469 -0.14689453 7.76855469 -0.14689453 9.4453125 -0.10546875 C10.28835937 -0.07066406 11.13140625 -0.03585938 12 0 C12.33 0.66 12.66 1.32 13 2 C10.02148438 2.34179688 10.02148438 2.34179688 7.04296875 2.68359375 C4.80603607 2.97170735 4.80603607 2.97170735 2 4 C-0.1875 3.5625 -0.1875 3.5625 -2 3 C-1.34 2.01 -0.68 1.02 0 0 Z " fill="#AFC4BD" transform="translate(17,57)"/>
<path d="M0 0 C0.66 0.33 1.32 0.66 2 1 C2.02888146 4.31248187 2.04675799 7.62493167 2.0625 10.9375 C2.07087891 11.88302734 2.07925781 12.82855469 2.08789062 13.80273438 C2.09111328 14.70185547 2.09433594 15.60097656 2.09765625 16.52734375 C2.10289307 17.35999756 2.10812988 18.19265137 2.11352539 19.05053711 C2 21 2 21 1 22 C-0.99958364 22.04080783 -3.00045254 22.04254356 -5 22 C-5 21.34 -5 20.68 -5 20 C-3.35 20 -1.7 20 0 20 C0 13.4 0 6.8 0 0 Z " fill="#76716B" transform="translate(57,43)"/>
<path d="M0 0 C0.33 0 0.66 0 1 0 C1 4.62 1 9.24 1 14 C2.32 14 3.64 14 5 14 C5.33 13.34 5.66 12.68 6 12 C6.33 13.65 6.66 15.3 7 17 C6.05125 16.814375 5.1025 16.62875 4.125 16.4375 C1.10131207 15.71313368 1.10131207 15.71313368 -1 17 C-1.33 15.68 -1.66 14.36 -2 13 C-1.67 13 -1.34 13 -1 13 C-0.67 8.71 -0.34 4.42 0 0 Z " fill="#48423B" transform="translate(32,46)"/>
<path d="M0 0 C0.33 0.66 0.66 1.32 1 2 C3.52733235 2.65555119 3.52733235 2.65555119 6 3 C6 3.66 6 4.32 6 5 C-0.75 7.125 -0.75 7.125 -3 6 C-2 3 -2 3 0 0 Z " fill="#8A8076" transform="translate(42,60)"/>
<path d="M0 0 C0.99 0.33 1.98 0.66 3 1 C3.33 1.99 3.66 2.98 4 4 C0.25 7 0.25 7 -2 7 C-2.66 5.68 -3.32 4.36 -4 3 C-2.1875 1.4375 -2.1875 1.4375 0 0 Z " fill="#C4E3DB" transform="translate(43,23)"/>
<path d="M0 0 C-0.33 1.32 -0.66 2.64 -1 4 C-2.65 4.33 -4.3 4.66 -6 5 C-6 3.35 -6 1.7 -6 0 C-3.50907189 -1.24546405 -2.58919267 -0.7767578 0 0 Z " fill="#F9F7EC" transform="translate(29,59)"/>
<path d="M0 0 C0.33 0.66 0.66 1.32 1 2 C0.34 2 -0.32 2 -1 2 C-1 3.98 -1 5.96 -1 8 C-2.98 8.99 -2.98 8.99 -5 10 C-4.56802365 5.2482602 -3.67230705 3.07999946 0 0 Z " fill="#D8EFEC" transform="translate(23,32)"/>
<path d="M0 0 C0.99 0.33 1.98 0.66 3 1 C3.33 3.31 3.66 5.62 4 8 C3.01 8.495 3.01 8.495 2 9 C2 8.34 2 7.68 2 7 C1.34 6.67 0.68 6.34 0 6 C0 4.02 0 2.04 0 0 Z " fill="#D6EEE9" transform="translate(75,26)"/>
<path d="M0 0 C0.99 0 1.98 0 3 0 C3.33 0.99 3.66 1.98 4 3 C4.66 3.66 5.32 4.32 6 5 C4.68 5.33 3.36 5.66 2 6 C1.34 4.02 0.68 2.04 0 0 Z M5 0 C7 1 7 1 7 1 Z " fill="#F1EEE3" transform="translate(44,30)"/>
<path d="M0 0 C0.33 0.99 0.66 1.98 1 3 C1.99 3.33 2.98 3.66 4 4 C3.01 4 2.02 4 1 4 C1 4.66 1 5.32 1 6 C-0.8125 7.0625 -0.8125 7.0625 -3 8 C-3.99 7.67 -4.98 7.34 -6 7 C-5.195625 6.401875 -4.39125 5.80375 -3.5625 5.1875 C-0.77672016 3.19052724 -0.77672016 3.19052724 0 0 Z " fill="#B6B3A6" transform="translate(22,61)"/>
<path d="M0 0 C2.31 0 4.62 0 7 0 C5.625 1.5 5.625 1.5 4 3 C3.34 3 2.68 3 2 3 C1.67 3.99 1.34 4.98 1 6 C0 5 0 5 -0.0625 2.4375 C-0.041875 1.633125 -0.02125 0.82875 0 0 Z " fill="#E9F8F6" transform="translate(9,54)"/>
<path d="M0 0 C0.33 0.66 0.66 1.32 1 2 C0.01 2 -0.98 2 -2 2 C-2.33 3.32 -2.66 4.64 -3 6 C-3.66 5.01 -4.32 4.02 -5 3 C-6.32 2.34 -7.64 1.68 -9 1 C-4.545 0.505 -4.545 0.505 0 0 Z " fill="#D9EFEB" transform="translate(37,28)"/>
<path d="M0 0 C1.98 0 3.96 0 6 0 C6 0.66 6 1.32 6 2 C5.01 2.495 5.01 2.495 4 3 C3.67 3.66 3.34 4.32 3 5 C1.5 3.625 1.5 3.625 0 2 C0 1.34 0 0.68 0 0 Z " fill="#E0ECE7" transform="translate(23,75)"/>
<path d="M0 0 C0.33 0.66 0.66 1.32 1 2 C1.66 2.165 2.32 2.33 3 2.5 C3.66 2.665 4.32 2.83 5 3 C5.33 3.66 5.66 4.32 6 5 C5.21625 4.814375 4.4325 4.62875 3.625 4.4375 C1.02910225 3.74037734 1.02910225 3.74037734 -1 5 C-1 4.34 -1 3.68 -1 3 C-1.66 2.67 -2.32 2.34 -3 2 C-2.01 1.34 -1.02 0.68 0 0 Z " fill="#B6AFA7" transform="translate(48,27)"/>
</svg>
